<svg width="20" height="20" viewBox="0 0 20 20" fill="none" xmlns="http://www.w3.org/2000/svg">
<path d="M6.62677 5C7.09589 5 7.52001 5.03901 7.90862 5.12503C8.29172 5.21105 8.62231 5.34409 8.89839 5.53163C9.17196 5.71918 9.38552 5.96424 9.53906 6.27932C9.6876 6.5919 9.76562 6.97999 9.76562 7.43311C9.76562 7.92523 9.65109 8.33983 9.42703 8.67292C9.20047 9.0065 8.86938 9.27207 8.42426 9.48562C9.02842 9.66017 9.47655 9.96474 9.77363 10.3999C10.0732 10.84 10.2162 11.3661 10.2162 11.9732C10.2162 12.4734 10.1302 12.9005 9.94267 13.2601C9.76259 13.6194 9.49688 13.9289 9.16896 14.1613C8.84837 14.3933 8.46827 14.5599 8.05666 14.6719C7.64131 14.784 7.21302 14.841 6.78281 14.8415H2V5.0055H6.62627L6.62677 5ZM13.2981 13.109C13.5897 13.3956 14.0118 13.5386 14.5614 13.5386C14.9545 13.5386 15.2936 13.4396 15.5797 13.2391C15.8638 13.0465 16.0328 12.8325 16.1009 12.6139H17.8253C17.5573 13.4656 17.1271 14.0803 16.5595 14.4479C15.9918 14.8205 15.3041 15 14.5069 15C13.9468 15 13.4491 14.914 12.991 14.7344C12.5596 14.5644 12.169 14.3052 11.8447 13.9737C11.5346 13.6482 11.295 13.2546 11.1255 12.7939C10.956 12.3333 10.8754 11.8277 10.8754 11.2806C10.8754 10.7439 10.9665 10.2543 11.1465 9.7932C11.314 9.35043 11.5672 8.94508 11.8917 8.6004C12.2223 8.25932 12.6004 8.00375 13.051 7.8032C13.4991 7.60265 13.9838 7.51413 14.5304 7.51413C15.1376 7.51413 15.6582 7.62366 16.1169 7.86322C16.5526 8.08504 16.9315 8.40419 17.2242 8.79595C17.5187 9.18655 17.7243 9.63716 17.8518 10.1453C17.9794 10.6454 18.0184 11.1715 17.9924 11.7317H12.8635C12.8635 12.2918 13.051 12.8205 13.3376 13.107L13.2831 13.128L13.2981 13.109ZM6.46772 13.1425C6.67878 13.1425 6.88184 13.1215 7.07189 13.08C7.25206 13.0446 7.42426 12.9767 7.58003 12.8795C7.72057 12.7909 7.8406 12.6604 7.92912 12.4914C8.01515 12.3323 8.05416 12.1113 8.05416 11.8507C8.05416 11.3506 7.90812 10.991 7.62704 10.7724C7.34046 10.5589 6.96786 10.4519 6.50173 10.4519H4.16009V13.153H6.46822V13.132L6.46772 13.1425ZM15.5432 9.37609C15.3061 9.11803 14.9155 8.98 14.4359 8.98C14.1258 8.98 13.8682 9.02951 13.6597 9.13903C13.4681 9.23259 13.2991 9.36673 13.1646 9.53213C13.0447 9.67945 12.956 9.84961 12.904 10.0323C12.8575 10.1867 12.8278 10.3456 12.8155 10.5064H15.9908C15.9438 10.0063 15.7693 9.63916 15.5377 9.37859V9.3866L15.5432 9.37609ZM6.34819 8.96449C6.73129 8.96449 7.04888 8.87597 7.29895 8.69092C7.54902 8.51138 7.66905 8.2088 7.66905 7.7977C7.66905 7.56864 7.62204 7.3811 7.54902 7.23506C7.46794 7.09537 7.35328 6.97813 7.21543 6.89397C7.06653 6.80776 6.90314 6.74945 6.7333 6.72193C6.54867 6.687 6.36104 6.67042 6.17314 6.67242H4.15459V8.96449H6.34819ZM12.4148 5.65916H16.3949V6.62791H12.4148V5.65116V5.65916Z" fill="white"/>
</svg>
