<svg width="20" height="20" viewBox="0 0 20 20" fill="none" xmlns="http://www.w3.org/2000/svg">
<path d="M10 17C8.73307 17 7.56185 16.6878 6.48633 16.0635C5.41081 15.4391 4.56087 14.5892 3.93652 13.5137C3.31217 12.4382 3 11.2669 3 10C3 8.73307 3.31217 7.56185 3.93652 6.48633C4.56087 5.41081 5.41081 4.56087 6.48633 3.93652C7.56185 3.31217 8.73307 3 10 3C11.2669 3 12.4382 3.31217 13.5137 3.93652C14.5892 4.56087 15.4391 5.41081 16.0635 6.48633C16.6878 7.56185 17 8.73307 17 10C17 11.2669 16.6878 12.4382 16.0635 13.5137C15.4391 14.5892 14.5892 15.4391 13.5137 16.0635C12.4382 16.6878 11.2669 17 10 17ZM14.8262 12.0508C14.2155 11.8594 13.623 11.7637 13.0488 11.7637C12.9577 11.7637 12.7891 11.7819 12.543 11.8184C12.7161 12.666 12.8073 13.5319 12.8164 14.416C13.7279 13.8327 14.3978 13.0443 14.8262 12.0508ZM11.2578 15.0859C11.276 14.1562 11.194 13.2174 11.0117 12.2695C10.7383 12.4062 10.4876 12.5566 10.2598 12.7207C9.27539 13.4134 8.62826 14.1608 8.31836 14.9629C8.86523 15.1543 9.42578 15.25 10 15.25C10.4102 15.25 10.8294 15.1953 11.2578 15.0859ZM4.77734 9.53516C4.75911 9.70833 4.75 9.86328 4.75 10C4.75 10.8477 4.93913 11.6383 5.31738 12.3721C5.69564 13.1058 6.21289 13.7142 6.86914 14.1973C7.33398 13.0033 8.07682 12.0462 9.09766 11.3262C9.58073 10.9889 10.0638 10.7155 10.5469 10.5059C10.401 10.0957 10.2552 9.72201 10.1094 9.38477C9.23438 9.80404 8.32292 10.0091 7.375 10C6.50911 9.99089 5.64323 9.83594 4.77734 9.53516ZM7.18359 5.58398C6.30859 6.13997 5.6569 6.88737 5.22852 7.82617C5.95768 8.10872 6.67318 8.25 7.375 8.25C8.02214 8.25 8.65104 8.10417 9.26172 7.8125C8.65104 6.85547 7.95833 6.11263 7.18359 5.58398ZM10 4.75C9.58984 4.75 9.16146 4.80924 8.71484 4.92773C9.38932 5.45638 10.0091 6.13997 10.5742 6.97852C11.2852 6.42253 11.7773 5.82096 12.0508 5.17383C11.3945 4.89128 10.7109 4.75 10 4.75ZM13.4453 6.04883C13.0078 7.06055 12.3516 7.89909 11.4766 8.56445C11.6953 9.03841 11.8958 9.53971 12.0781 10.0684C12.4154 10.0228 12.7389 10 13.0488 10C13.7507 10.0091 14.4753 10.1185 15.2227 10.3281C15.2409 10.1185 15.25 10.0091 15.25 10C15.25 9.22526 15.0905 8.49609 14.7715 7.8125C14.4525 7.12891 14.0104 6.54102 13.4453 6.04883Z" fill="white"/>
</svg>
