<svg width="20" height="20" viewBox="0 0 20 20" fill="none" xmlns="http://www.w3.org/2000/svg">
<path d="M17.9941 6.00253C17.8992 5.65036 17.7137 5.3292 17.4561 5.071C17.1985 4.8128 16.8778 4.62658 16.5258 4.53086C15.2208 4.17253 9.99997 4.16669 9.99997 4.16669C9.99997 4.16669 4.77997 4.16086 3.47414 4.50336C3.12241 4.60348 2.80232 4.79234 2.54461 5.05181C2.28689 5.31127 2.10021 5.63263 2.00247 5.98503C1.6583 7.29003 1.65497 9.99669 1.65497 9.99669C1.65497 9.99669 1.65164 12.7167 1.9933 14.0084C2.18497 14.7225 2.74747 15.2867 3.46247 15.4792C4.7808 15.8375 9.98747 15.8434 9.98747 15.8434C9.98747 15.8434 15.2083 15.8492 16.5133 15.5075C16.8654 15.412 17.1864 15.2262 17.4447 14.9685C17.7029 14.7108 17.8895 14.3902 17.9858 14.0384C18.3308 12.7342 18.3333 10.0284 18.3333 10.0284C18.3333 10.0284 18.35 7.30753 17.9941 6.00253ZM8.32997 12.5042L8.33414 7.50419L12.6733 10.0084L8.32997 12.5042Z" fill="white"/>
</svg>
